<svg xmlns="http://www.w3.org/2000/svg" xmlns:xlink="http://www.w3.org/1999/xlink" id="Layer_1" x="0px" y="0px" width="600px" height="206px" viewBox="0 0 600 206" xml:space="preserve">
<g>
	<path fill="#FFFFFF" d="M17.622,116.525c-0.016-0.13-0.028-0.26-0.04-0.388c-0.197-0.458,0.085-0.976-0.173-1.43   c-0.011-0.137-0.018-0.272-0.029-0.408c-0.197-0.534,0.078-1.12-0.167-1.65c-0.012-0.198-0.024-0.397-0.038-0.593   c-0.202-0.669,0.09-1.377-0.17-2.041c-0.012-0.27-0.022-0.542-0.037-0.816c-0.197-0.915,0.085-1.851-0.154-2.76   c-0.018-0.983-0.034-1.97-0.052-2.953c-0.104-0.948-0.107-1.902,0.005-2.85c0.01-0.752,0.019-1.504,0.029-2.26   c0.284-1.068-0.041-2.171,0.172-3.25c0.011-0.275,0.022-0.551,0.031-0.831c0.273-0.655-0.031-1.361,0.177-2.023   c0.018-0.188,0.033-0.372,0.047-0.562c0.216-0.475-0.024-1.001,0.159-1.479c0.009-0.14,0.015-0.283,0.023-0.425   c0.261-0.374-0.009-0.822,0.177-1.207c0.015-0.188,0.032-0.374,0.051-0.562c0.191-0.336-0.005-0.729,0.154-1.07   c0.012-0.131,0.028-0.262,0.042-0.389c0.215-0.321-0.009-0.712,0.164-1.042c0.396-4.499,1.842-8.687,4.008-12.605   c2.569-4.646,5.59-8.993,8.964-13.109c2.102-2.567,4.579-4.816,6.484-7.524c2.645-3.757,5.73-7.112,9.085-10.199   c4.072-3.747,8.646-6.822,13.551-9.431c4.858-2.584,9.925-4.605,15.179-6.203c3.048-0.926,6.168-1.508,9.276-2.168   c0.311-0.184,0.704,0.071,1.002-0.176c0.074-0.01,0.149-0.019,0.222-0.028c0.339-0.163,0.735,0.034,1.071-0.154   c0.118-0.018,0.237-0.032,0.358-0.048c0.397-0.186,0.852,0.063,1.24-0.168c0.2-0.012,0.397-0.027,0.596-0.042   c0.46-0.188,0.973,0.087,1.425-0.167c0.206-0.012,0.411-0.023,0.616-0.037c0.728-0.201,1.502,0.107,2.227-0.172   c0.413-0.009,0.825-0.02,1.241-0.032c1.629-0.104,3.257-0.104,4.886,0c0.411,0.012,0.819,0.027,1.226,0.039   c0.665,0.258,1.372-0.029,2.042,0.166c0.203,0.014,0.406,0.025,0.612,0.037c0.453,0.258,0.968-0.028,1.426,0.174l0.388,0.039   c0.322,0.216,0.712-0.009,1.042,0.161c1.992,0.513,4.03,0.828,6.015,1.401c2.09,0.604,4.136,1.316,6.052,2.333   c2.252,1.195,4.73,1.727,7.091,2.61c7.132,2.666,13.917,6.005,20.363,10.048c2.617,1.641,5.135,3.416,7.65,5.207   c2.096,1.491,3.453,3.591,4.784,5.693c2.984,4.709,5.639,9.604,8.098,14.6c3.378,6.866,6.519,13.837,8.754,21.179   c0.677,2.226,1.345,4.465,1.605,6.791c0.021,0.195,0.139,0.379,0.215,0.566c0.197,0.46-0.084,0.976,0.173,1.427   c0.012,0.341,0.024,0.68,0.037,1.022c0.093,0.402,0.102,0.81-0.008,1.217c-0.009,0.206-0.017,0.415-0.026,0.628   c-0.258,0.373,0.015,0.821-0.173,1.206c-0.333,1.274-0.794,2.527-0.612,3.883c0.108,2.651,0.108,5.3,0,7.951   c-0.037,0.616-0.219,1.228-0.002,1.844c0.114,1.832,0.105,3.667,0.002,5.5c-1.941,6.611-3.492,13.351-6.179,19.719   c-2.469,5.857-5.554,11.375-9.346,16.499c-2.557,3.455-5.332,6.72-8.402,9.719c-5.161,5.032-10.896,9.294-17.202,12.802   c-2.852,1.582-5.792,3.002-8.799,4.212c-3.93,1.583-8.014,2.755-12.145,3.734c-1.543,0.368-3.118,0.594-4.683,0.887   c-0.318,0.175-0.709-0.065-1.019,0.169c-0.136,0.009-0.27,0.021-0.406,0.033c-0.385,0.192-0.838-0.085-1.21,0.177   c-0.143,0.01-0.283,0.019-0.422,0.031c-0.454,0.19-0.967-0.093-1.414,0.171c-0.208,0.012-0.418,0.022-0.626,0.034   c-0.607,0.191-1.253-0.087-1.857,0.159c-0.264,0.015-0.53,0.027-0.793,0.042c-2.925,0.112-5.847,0.103-8.767,0   c-0.374-0.015-0.747-0.03-1.12-0.045c-0.564-0.217-1.167,0.018-1.737-0.158c-0.203-0.012-0.408-0.026-0.613-0.035   c-0.452-0.254-0.967,0.022-1.429-0.168c-0.14-0.01-0.278-0.021-0.42-0.031c-0.376-0.262-0.825,0.012-1.208-0.174   c-0.137-0.012-0.274-0.024-0.41-0.035c-0.313-0.234-0.701,0.005-1.019-0.169c-3.601-0.355-7.065-1.356-10.522-2.337   c-5.267-1.493-10.237-3.737-15.052-6.31c-3.337-1.786-6.565-3.803-9.494-6.208c-2.241-1.847-4.799-3.17-7.162-4.802   c-1.823-1.262-3.606-2.568-5.12-4.221c-1.25-1.363-2.694-2.546-3.855-3.999c-1.614-2.017-3.146-4.091-4.489-6.294   c-1.181-1.94-2.344-3.897-3.301-5.966c-1.949-4.237-3.606-8.582-4.941-13.058c-1.051-3.537-1.737-7.154-2.553-10.738   c-0.254-1.123-0.315-2.287-0.468-3.431c-0.161-0.343,0.037-0.734-0.154-1.075l-0.049-0.355   C17.603,117.371,17.851,116.916,17.622,116.525 M35.087,56.222c-0.883,0.666-1.292,1.345-1.798,1.934   c-3.796,4.403-7.281,9.035-10.09,14.141c-1.58,2.869-3.076,5.79-3.754,9.042c-1.023,4.882-1.566,9.814-1.869,14.793   c-0.428,7.063-0.043,14.085,0.724,21.089c0.364,3.318,0.929,6.637,1.702,9.882c1.398,5.87,3.17,11.633,5.681,17.146   c3.088,6.766,6.962,12.988,12.44,18.108c1.769,1.65,3.622,3.201,5.629,4.559c0.188,0.127,0.362,0.261,0.498,0.083   c0.154-0.201-0.179-0.332-0.203-0.448c-0.164-0.724-0.892-0.738-1.308-1.134c-3.126-2.977-6.012-6.178-8.565-9.654   c-6.119-8.333-10.669-17.412-13.235-27.491c-1.17-4.605-1.986-9.238-2.448-13.948c-0.664-6.758-0.327-13.493,0.801-20.174   c1.656-9.789,4.935-19.025,10.171-27.482C31.504,63.366,33.064,59.841,35.087,56.222"></path>
	<path fill="#98AA3D" d="M97.253,172.492c-16.012-0.181-30.157-5.397-42.203-15.987c-11.317-9.954-18.435-22.423-21.002-37.26   c-3.319-19.161,1.049-36.597,13.025-51.931c8.857-11.337,20.369-18.976,34.38-22.368c21.648-5.237,41.11-0.504,57.964,14.041   c11.323,9.768,18.373,22.25,20.888,36.978c3.682,21.573-1.93,40.612-16.92,56.647c-9.558,10.222-21.419,16.419-35.182,18.938   C104.59,172.211,100.938,172.537,97.253,172.492"></path>
	<path fill="#FFFFFF" d="M114.527,122.663c0.033,0.004,0.075-0.009,0.099,0.01c2.833,2.125,6.243,1.886,9.44,1.926   c2.244,0.027,4.287,0.194,6.252,1.25c0.518,0.278,1.098,0.299,1.686,0.272c1.53-0.069,3.049,0.024,4.578,0.16   c2.11,0.189,3.251,1.38,3.815,3.265c0.544,1.798,0.495,3.62-0.069,5.415c-0.762,2.42-1.923,3.166-4.423,2.772   c-1.616-0.257-3.233-0.456-4.869-0.352c-0.755,0.048-1.401-0.235-2.022-0.58c-1.824-1.016-3.746-1.358-5.801-0.953   c-0.611,0.122-1.224-0.005-1.822-0.104c-2.105-0.348-4.201-0.755-6.34-0.889c-0.391-0.027-0.819-0.172-1.146-0.391   c-1.902-1.262-4.055-1.468-6.24-1.561c-5.292-0.222-10.58-0.532-15.813-1.42c-0.476-0.079-0.837-0.125-0.802,0.594   c0.219,4.307-0.2,8.628,0.216,12.938c0.151,1.599,0.458,3.155,1.08,4.641c0.831,1.996,0.437,3.761-1.265,5.068   c-4.026,3.101-8.411,1.733-10.632-2.713c-1.377-2.759-1.608-5.875-2.033-8.898c-0.148-1.08-0.339-2.123-0.771-3.14   c-1.088-2.561-1.532-5.277-1.67-8.032c-0.231-4.467-0.31-8.943-0.596-13.407c-0.478-7.439-0.897-14.891-2.092-22.265   c-0.403-2.479-0.977-4.923-1.479-7.383c-1.071-5.248-2.956-10.292-3.878-15.574c-0.327-1.872-0.623-3.749-0.93-5.622   c-0.538-3.316,1.358-4.833,3.685-5.597c1.722-0.57,3.476-0.489,5.187,0.167c1.453,0.554,2.287,1.639,2.317,3.167   c0.137,6.794,1.714,13.327,3.78,19.725c1.841,5.703,2.62,11.562,3.391,17.448c0.213,1.611,0.395,3.228,0.612,5.053   c0.422-0.574,0.738-0.995,1.044-1.423c2.973-4.104,6.4-7.844,9.549-11.809c1.355-1.701,2.584-3.491,3.679-5.377   c1.563-2.692,3.697-4.948,5.714-7.287c1.6-1.854,3.21-3.694,4.533-5.768c0.738-1.152,1.352-2.357,1.717-3.676   c0.443-1.61,1.577-2.452,3.127-2.68c3.54-0.524,7.307,1.626,7.635,6.016c0.215,2.912-0.787,5.323-2.118,7.703   c-2.251,4.017-5.218,7.535-7.908,11.248c-4.608,6.371-10.058,12.052-14.828,18.288c-1.21,1.587-2.316,3.238-3.473,5.006   c2.918,0.446,5.69,0.856,8.46,1.297c1.675,0.267,3.355,0.519,4.981,1.016c1.581,0.483,3.066,1.156,4.113,2.497   c0.382,0.495,0.831,0.334,1.282,0.362C113.737,122.688,114.096,122.587,114.527,122.663"></path>
	<path fill="#FFFFFF" d="M250.41,127.596c-0.119-0.018-0.234-0.034-0.35-0.051c-0.342-0.179-0.733,0.005-1.08-0.153   c-0.188-0.018-0.373-0.033-0.559-0.047c-0.892-0.228-1.81,0.036-2.701-0.151c-0.975-0.133-1.72-0.817-2.645-1.06   c-0.908-0.172-1.815-0.151-2.721-0.015c-0.183,0.006-0.371,0.012-0.556,0.015c-0.451-0.252-0.964,0.024-1.426-0.167   c-0.748-0.148-1.494-0.296-2.244-0.445c-0.665-0.258-1.372,0.031-2.041-0.167c-0.503-0.009-0.975-0.119-1.356-0.473   c-0.542-0.503-1.283-0.517-1.923-0.784c-0.303-0.246-0.691,0.006-1.004-0.171c-0.255-0.018-0.51-0.034-0.765-0.052   c-0.958-0.23-1.947,0.046-2.909-0.152c-0.334-0.012-0.668-0.027-0.998-0.041c-0.743-0.249-1.522,0.038-2.269-0.165l-0.625-0.027   c-0.585-0.28-1.228,0.034-1.824-0.176l-0.421-0.026c-0.442-0.27-0.959,0.021-1.415-0.177c-0.136-0.013-0.271-0.025-0.406-0.034   c-0.312-0.234-0.697,0-1.019-0.166c-0.144-0.012-0.286-0.021-0.428-0.034c-0.3-0.249-0.692,0.006-1.004-0.176   c-0.602-0.116-0.389,0.301-0.379,0.587c0.154,2.877,0.021,5.758,0.072,8.638c0.006,0.402-0.087,0.816,0.082,1.208   c0.019,0.184,0.034,0.374,0.051,0.557c0.177,0.316-0.072,0.702,0.174,1.004c-0.012,0.981,0.361,1.841,0.84,2.666   c0.112,0.61,0.121,1.223-0.006,1.834c-0.73,1.597-2.145,2.328-3.694,2.883c-0.68,0.119-1.356,0.119-2.035-0.002   c-2.027-0.583-3.412-1.85-4.114-3.85c-0.493-1.41-0.867-2.848-1.022-4.336c-0.171-0.332,0.055-0.723-0.163-1.041   c-0.013-0.131-0.028-0.262-0.042-0.39c-0.158-0.34,0.037-0.733-0.152-1.069c-0.165-1.454-0.94-2.719-1.278-4.126   c-0.09-0.376,0.01-0.785-0.203-1.128c-0.177-0.315,0.075-0.702-0.174-1.004c-0.009-0.142-0.021-0.282-0.029-0.424   c-0.197-0.521,0.09-1.102-0.177-1.617c0.089-0.613-0.44-1.167-0.182-1.798c0.138-0.903,0.159-1.804-0.014-2.706   c-0.012-0.475-0.024-0.952-0.037-1.429c-0.2-1.222,0.095-2.468-0.16-3.691l-0.047-1.204c-0.172-0.315,0.076-0.704-0.172-1.004   c-0.006-0.073-0.018-0.148-0.024-0.218c-0.215-1.363,0.101-2.746-0.166-4.104c-0.017-0.265-0.031-0.532-0.043-0.795   c-0.185-0.539,0.08-1.123-0.161-1.652c-0.015-0.197-0.027-0.395-0.042-0.593c-0.177-0.479,0.061-1.003-0.153-1.478   c-0.018-0.187-0.033-0.374-0.052-0.56c-0.194-0.455,0.089-0.967-0.171-1.413c-0.013-0.142-0.022-0.281-0.034-0.424   c-0.182-0.392,0.078-0.841-0.168-1.223c-0.009-0.136-0.021-0.272-0.033-0.409c-0.188-0.388,0.075-0.844-0.17-1.224   c-0.012-0.136-0.024-0.273-0.033-0.409c-0.17-0.328,0.053-0.719-0.167-1.041c-0.422-2.168-0.843-4.338-1.268-6.51   c-0.16-0.328,0.058-0.715-0.158-1.034c-1.162-4.001-2.372-7.983-3.059-12.109c-0.081-0.507-0.066-1.046-0.249-1.544   c-0.165-0.332,0.055-0.72-0.163-1.04l-0.04-0.389c-0.098-0.746-0.127-1.492,0.017-2.238c0.64-1.709,2.048-2.358,3.693-2.684   c0.606-0.112,1.216-0.103,1.829-0.004c1.277,0.322,2.498,0.732,3.091,2.078c0.178,0.409-0.046,0.868,0.157,1.274   c0.018,0.326,0.037,0.646,0.055,0.971c0.182,0.545-0.067,1.138,0.148,1.683c0.019,0.185,0.037,0.373,0.052,0.562   c0.158,0.339-0.033,0.734,0.155,1.071c0.015,0.118,0.033,0.236,0.048,0.355c0.176,0.321-0.064,0.712,0.17,1.021   c0.218,2.46,0.987,4.793,1.626,7.155c0.846,3.118,1.856,6.194,2.49,9.372c0.173,0.316-0.064,0.708,0.17,1.019l0.033,0.406   c0.182,0.483-0.058,1.004,0.155,1.484l0.049,0.354c0.175,0.318-0.063,0.709,0.169,1.022c0.012,0.135,0.025,0.271,0.037,0.407   c0.173,0.32-0.064,0.71,0.168,1.019c0.013,0.136,0.025,0.273,0.035,0.409c0.158,0.343-0.035,0.734,0.155,1.07   c0.017,0.188,0.032,0.374,0.05,0.562c0.179,0.388-0.079,0.84,0.167,1.223v1.352c1.056-1.372,1.896-2.499,2.775-3.595   c1.474-1.838,2.926-3.7,4.483-5.474c1.801-2.052,3.216-4.36,4.684-6.638c0.944-1.455,2.168-2.699,3.279-4.032   c2.125-2.538,4.507-4.91,5.442-8.261c0.313-1.108,1.328-1.532,2.399-1.751c0.539-0.101,1.08-0.101,1.623,0   c1.653,0.438,3.136,1.12,3.842,2.82c0.225,0.545,0.326,1.137,0.48,1.709c0.106,0.812,0.106,1.626,0,2.438   c-1.717,5.208-5.416,9.166-8.536,13.479c-2.906,4.015-6.304,7.627-9.416,11.471c-1.416,1.75-2.694,3.598-3.995,5.43   c-0.138,0.191-0.223,0.348,0.09,0.431c0.304,0.246,0.692,0,1.007,0.169c0.142,0.011,0.28,0.022,0.424,0.034   c0.301,0.246,0.689,0,1.005,0.174c0.136,0.011,0.27,0.023,0.405,0.035c0.31,0.235,0.701-0.005,1.019,0.17   c0.523,0.284,1.086,0.261,1.65,0.234c0.3,0.247,0.691-0.007,1.004,0.176c0.831,0.435,1.781,0.421,2.664,0.594   c1.438,0.283,2.691,0.864,3.864,1.685c0.41-0.035,0.613,0.752,1.128,0.281c0.086-0.098,0.17-0.194,0.313-0.092   c0.692,0.068,1.253,0.414,1.748,0.869c0.255,0.237,0.489,0.453,0.866,0.379c0.672,0.234,1.389-0.033,2.067,0.158   c0.454,0.221,0.932,0.286,1.426,0.238c0.313,0.235,0.704-0.005,1.022,0.175c0.55,0.087,1.094,0.074,1.641-0.005   c0.747-0.095,1.493-0.119,2.24,0.012c0.897,0.311,1.661,0.962,2.649,1.042c0.496,0.176,0.99,0.145,1.487,0.018l0.568-0.021   c0.657,0.273,1.363-0.026,2.023,0.169c1.501,0.213,2.678,0.847,3.198,2.378c0.104,0.31-0.005,0.689,0.308,0.929   c0.106,0.879,0.112,1.762-0.005,2.645c-0.224,0.576-0.421,1.164-0.679,1.728c-0.315,0.692-0.81,1.209-1.597,1.372   C251.356,127.7,250.882,127.706,250.41,127.596"></path>
	<path fill="#FFFFFF" d="M561.943,77.167c0.209-0.009,0.419-0.018,0.625-0.029c2.174-0.11,4.35-0.113,6.521,0.003   c0.767,0.214,1.534,0.426,2.304,0.646c1.858,0.533,2.897,1.798,3.245,3.673c0.1,0.88,0.106,1.763-0.003,2.646   c-0.287,0.848-0.66,1.674-0.829,2.542c-0.19,0.977-0.686,0.938-1.42,0.686c-2.102-0.725-4.188-1.514-6.369-1.986   c-3.78-0.826-7.505-0.32-11.117,0.828c-7.832,2.487-14.643,6.679-20.249,12.716c-2.101,2.263-3.594,4.908-4.13,8.014   c-0.831,4.816,0.906,7.875,5.48,9.652c2.136,0.827,4.375,1.23,6.631,1.37c6.574,0.407,12.986-0.437,19.153-2.819   c2.032-0.785,3.97-1.746,5.505-3.359c0.739-0.777,1.256-1.669,1.488-2.725c0.408-1.804-0.263-2.99-2.047-3.466   c-2.195-0.593-4.431-0.474-6.673-0.32c-5.442,0.385-10.825,1.38-16.29,1.535c-0.778,0.022-1.543,0.01-2.311-0.213   c-0.704-0.205-0.771-0.535-0.485-1.125c0.81-1.684,2.124-2.879,3.679-3.838c3.563-2.203,7.523-3.325,11.539-4.302   c4.727-1.152,9.507-1.857,14.383-1.759c1.363,0.031,2.651,0.36,3.839,1.113c1.495,0.945,2.002,2.442,2.468,3.993   c0.165,0.328-0.053,0.718,0.162,1.04c0,1.478,0,2.955,0,4.435c-0.211,1.202-0.043,2.411-0.098,3.617   c-0.018,0.367,0.062,0.738-0.069,1.1c-0.009,0.345-0.015,0.689-0.023,1.035c-0.287,0.933,0.036,1.905-0.174,2.841   c-0.018,0.388-0.035,0.779-0.054,1.172c-0.23,0.961,0.045,1.948-0.152,2.909l-0.052,1.168c-0.23,1.1,0.043,2.219-0.15,3.32   c-0.013,0.412-0.022,0.826-0.031,1.239c-0.249,1.396-0.042,2.802-0.108,4.2c-0.031,0.567,0.075,1.141-0.068,1.702   c-0.012,0.267-0.027,0.532-0.038,0.795c-0.231,0.394,0.015,0.846-0.165,1.246c-0.387,1.195-0.597,2.437-1.213,3.574   c-1.119,2.068-2.894,3.106-5.102,3.573c-0.224,0.045-0.441,0.133-0.661,0.189c-1.435,0.351-1.583,0.221-1.593-1.327   c0-0.166-0.042-0.334-0.066-0.501c-0.158-0.342,0.033-0.738-0.153-1.073c-0.017-0.189-0.035-0.373-0.054-0.562   c-0.172-0.397,0.067-0.852-0.157-1.243c-0.015-0.197-0.031-0.396-0.043-0.591c-0.197-0.678,0.078-1.39-0.163-2.063   c-0.017-0.399-0.027-0.802-0.04-1.201c-0.15-2.166-0.023-4.335-0.069-6.5c-0.009-0.371,0.075-0.75-0.085-1.107   c0.109-0.743-0.148-1.114-0.959-0.972c-0.29,0.055-0.597,0.03-0.901,0.042c-1.027,0.21-2.083-0.081-3.111,0.158   c-0.255,0.016-0.506,0.031-0.762,0.048c-0.671,0.203-1.38-0.088-2.044,0.169c-0.204,0.014-0.406,0.025-0.609,0.034   c-0.592,0.209-1.235-0.1-1.821,0.176c-0.209,0.012-0.418,0.021-0.627,0.03c-0.592,0.204-1.234-0.099-1.823,0.178l-0.626,0.026   c-0.618,0.194-1.272-0.071-1.889,0.154c-0.255,0.015-0.51,0.033-0.766,0.049c-0.688,0.194-1.406-0.069-2.095,0.155   c-0.321,0.018-0.641,0.036-0.961,0.051c-2.516,0.106-5.03,0.106-7.544,0c-0.265-0.012-0.529-0.026-0.796-0.042   c-0.461-0.237-0.983,0.026-1.45-0.165c-0.126-0.013-0.254-0.028-0.384-0.043c-0.322-0.215-0.713,0.012-1.044-0.16   c-3.174-0.479-6.124-1.41-8.679-3.525c-2.156-1.786-3.317-4.062-4.063-6.662c-0.11-0.368,0.081-0.743-0.147-1.069   c-0.171-0.323,0.065-0.71-0.169-1.022c-0.012-0.205-0.024-0.407-0.037-0.613c-0.102-1.357-0.102-2.717,0-4.07l0.035-0.628   c0.258-0.373-0.016-0.826,0.171-1.208c0.581-4.189,2.367-7.809,4.964-11.124c3.449-4.416,7.887-7.506,12.729-10.161   c4.066-2.225,8.366-3.78,12.813-4.963c1.58-0.419,3.215-0.622,4.827-0.926c0.391-0.187,0.842,0.077,1.226-0.168l0.404-0.034   C560.849,77.146,561.428,77.434,561.943,77.167"></path>
	<path fill="#FFFFFF" d="M458.718,92.058c-0.009-0.133-0.021-0.27-0.034-0.406c-0.181-0.397,0.064-0.853-0.163-1.244   c-0.014-0.196-0.027-0.394-0.043-0.591c-0.197-0.668,0.092-1.377-0.166-2.042V85.95c0.23-0.314-0.004-0.702,0.164-1.022   c0.482-1.979,0.931-2.586,2.694-2.891c0.335-0.104,0.672-0.104,1.012-0.003c7.014,1.703,12.679,5.936,18.493,9.874   c4.345,2.938,8.397,6.27,12.429,9.618c2.834,2.352,5.612,4.766,8.426,7.135c0.532,0.442,1.129,0.813,1.732,1.242   c0.204-0.421,0.073-0.832,0.335-1.118c0.248-0.304-0.004-0.692,0.178-1.007c0.009-0.133,0.021-0.272,0.033-0.408   c0.266-0.591-0.033-1.237,0.171-1.837v-2.864c-0.213-0.868,0.103-1.771-0.178-2.636c-0.007-0.209-0.018-0.418-0.026-0.629   c-0.206-0.66,0.093-1.367-0.178-2.023c-0.01-0.212-0.019-0.417-0.028-0.628c-0.181-0.547,0.064-1.14-0.152-1.685   c-0.017-0.185-0.032-0.374-0.047-0.558c-0.185-0.479,0.054-1.004-0.158-1.48c-0.016-0.189-0.034-0.374-0.052-0.563   c-0.186-0.465,0.075-0.985-0.16-1.449c-0.012-0.4-0.028-0.801-0.044-1.201c-0.103-0.336-0.097-0.677-0.002-1.015   c0.015-0.603,0.029-1.208,0.046-1.813c0.245-0.604-0.031-1.25,0.16-1.86c0.018-0.184,0.036-0.369,0.052-0.558   c0.188-0.34-0.006-0.731,0.158-1.073c0.396-4.02,2.359-6.99,5.948-8.87c0.37-0.196,0.582-0.045,0.802,0.3   c1.413,2.188,2.796,4.392,4.105,6.649c0.807,1.392,0.532,2.57-0.197,3.826c-0.762,1.319-1.589,2.625-1.649,4.226   c-0.262,0.373,0.018,0.825-0.177,1.207v2.454c0.2,0.678-0.079,1.392,0.168,2.062c0.011,0.198,0.026,0.394,0.043,0.592   c0.163,0.331-0.056,0.722,0.156,1.043c0.016,0.127,0.028,0.258,0.043,0.385c0.18,0.314-0.069,0.705,0.176,1.004   c0.054,1.815,0.573,3.552,0.893,5.318c0.611,3.368,1.31,6.715,1.956,10.078c0.437,2.283,0.843,4.573,1.262,6.86   c0.175,0.314-0.074,0.702,0.172,1.004c0.014,0.142,0.025,0.283,0.035,0.425c0.159,0.33-0.056,0.719,0.159,1.041   c0,0.255,0,0.513,0,0.767c-0.875,0.231-1.758,0.134-2.641,0.057c-2.876-0.14-5.41-1.358-7.924-2.578   c-4.146-2.011-8.111-4.366-12.111-6.65c-3.398-1.937-6.513-4.242-9.496-6.779c-2.727-2.315-5.423-4.67-8.18-6.945   c-2.877-2.37-5.723-4.815-9.016-6.635c-0.177,1.42-0.169,2.84,0,4.26c0.009,0.542,0.022,1.088,0.034,1.632   c0.215,1.346-0.109,2.719,0.176,4.064c0.009,0.412,0.019,0.825,0.027,1.238c0.112,2.241,0.112,4.485,0,6.725   c-0.009,0.143-0.019,0.281-0.027,0.424c-0.249,0.305,0.003,0.693-0.173,1.004c-0.377,1.096-0.538,2.257-1.071,3.305   c-1.158,2.259-3.111,3.37-5.495,3.876c-0.393,0.186-0.844-0.076-1.226,0.166c-0.404-0.091-0.864,0.19-1.222-0.195   c0.237-0.312-0.002-0.7,0.171-1.02c0.013-0.136,0.021-0.274,0.035-0.41c0.231-0.31-0.002-0.698,0.165-1.019   c0.013-0.141,0.023-0.283,0.034-0.425c0.261-0.374-0.02-0.825,0.178-1.208c0.017-0.118,0.03-0.235,0.046-0.354   c0.188-0.34-0.003-0.731,0.155-1.075c0.013-0.137,0.023-0.27,0.033-0.406c0.246-0.382-0.016-0.836,0.173-1.226   c0.009-0.137,0.021-0.273,0.029-0.406c0.246-0.382-0.012-0.833,0.171-1.224c0.018-0.186,0.034-0.374,0.051-0.559   c0.225-0.616-0.036-1.271,0.155-1.89c0.009-0.341,0.021-0.679,0.034-1.019c0.185-1.583,0.146-3.169,0.015-4.757   c-0.015-0.252-0.034-0.506-0.049-0.761c-0.18-0.481,0.054-1.004-0.155-1.48c-0.017-0.188-0.036-0.372-0.054-0.561   c-0.151-0.342,0.037-0.735-0.148-1.073c-0.017-0.116-0.034-0.233-0.049-0.353c-0.176-0.332,0.052-0.722-0.165-1.043   c-0.015-0.128-0.025-0.259-0.041-0.386c-0.18-0.315,0.073-0.703-0.176-1.007c-0.006-0.072-0.018-0.145-0.025-0.217   c-0.186-0.313,0.069-0.705-0.178-1.007c-0.011-0.071-0.02-0.142-0.028-0.219c-0.182-0.311,0.069-0.704-0.176-1.004   c-0.009-0.071-0.018-0.145-0.027-0.217c-0.179-0.321,0.063-0.71-0.174-1.022c-0.011-0.135-0.021-0.271-0.031-0.408   C458.715,92.76,458.952,92.371,458.718,92.058"></path>
	<path fill="#FFFFFF" d="M355.739,75.556l0.762-0.05c0.883-0.107,1.766-0.107,2.648,0c0.186,0.073,0.361,0.174,0.553,0.216   c2.714,0.549,2.435,1.597,2.714,3.283c-0.236,0.308,0.009,0.702-0.176,1.019c-2.182,6.638-6.442,12.139-9.876,18.09   c-2.543,4.408-5.25,8.718-7.551,13.262c-0.072,0.148-0.157,0.29-0.224,0.441c-0.738,1.626-0.731,1.638,1.04,1.687   c0.34,0.188,0.729,0,1.073,0.153c0.206,0.009,0.42,0.021,0.629,0.033c1.433,0.188,2.862,0.163,4.298,0.011   c0.264-0.011,0.527-0.026,0.795-0.038c0.728-0.213,1.5,0.104,2.227-0.179c0.209-0.011,0.417-0.02,0.628-0.028   c0.591-0.203,1.233,0.098,1.82-0.175c0.208-0.009,0.417-0.021,0.628-0.031c0.6-0.2,1.243,0.097,1.837-0.17   c0.273-0.012,0.543-0.023,0.817-0.035c0.803-0.2,1.647,0.104,2.446-0.166c0.407-0.011,0.817-0.023,1.225-0.032   c1.084-0.116,2.17-0.109,3.256-0.002c0.334,0.014,0.668,0.026,0.999,0.042c0.532,0.244,1.115-0.034,1.652,0.163   c0.137,0.009,0.272,0.021,0.411,0.029c0.308,0.238,0.703-0.012,1.019,0.181c1.155,0.485,2.419,0.597,3.563,1.188   c1.881,0.972,3.1,2.503,4.128,4.266c0.177,0.299,0.089,0.461-0.175,0.631c-2.309,1.496-4.518,3.161-7.091,4.206   c-0.605,0.246-1.242,0.252-1.841-0.066c-1.519-0.801-2.99-1.705-4.712-2.035c-0.517-0.268-1.098,0.025-1.621-0.176   c-0.202,0-0.408,0.003-0.616,0.003c-1.021,0.204-2.064-0.098-3.085,0.16c-0.194,0.013-0.391,0.028-0.588,0.038   c-0.53,0.199-1.109-0.08-1.635,0.175c-0.135,0.009-0.271,0.018-0.403,0.03c-0.413,0.177-0.874-0.045-1.279,0.155   c-0.186,0.02-0.371,0.037-0.56,0.055c-0.315,0.172-0.702-0.073-1.007,0.172c-0.139,0.01-0.282,0.022-0.422,0.031   c-0.315,0.173-0.703-0.072-1.004,0.173c-0.073,0.009-0.146,0.018-0.218,0.027c-0.321,0.179-0.712-0.06-1.022,0.172   c-1.769,0.047-3.458,0.583-5.184,0.867c-3.256,0.535-6.488,1.182-9.731,1.788c-0.74,0.136-1.48,0.292-2.225,0.44   c-0.311,0.176-0.703-0.073-1.003,0.171c-0.143,0.014-0.282,0.025-0.425,0.034c-0.317,0.168-0.709-0.066-1.019,0.168   c-0.136,0.012-0.272,0.021-0.407,0.033c-0.363,0.077-0.762,0.199-0.644-0.436l0.044-0.794c0.214-0.322-0.009-0.713,0.162-1.042   c0.153-1.79,0.808-3.448,1.409-5.107c0.811-2.239,1.725-4.435,2.838-6.546c0.088-0.164,0.068-0.385,0.098-0.583   c0.055-0.313,0.182-0.588,0.41-0.816c0.116-0.207,0.229-0.415,0.349-0.625c0.127-0.686,0.497-1.256,0.876-1.823   c0.57-0.408,0.712-1.086,1.031-1.65c1.284-2.259,2.532-4.542,3.819-6.8c1.189-2.085,2.411-4.153,3.619-6.23   c1.438-2.473,2.876-4.949,4.311-7.419c0.296-0.513,0.581-1.032,0.873-1.545c0.084-0.312-0.136-0.339-0.337-0.333   c-1.681,0.038-3.36-0.112-5.038,0.082c-0.459,0.017-0.916,0.034-1.377,0.049c-1.283,0.214-2.594-0.106-3.873,0.169   c-0.411,0.008-0.817,0.022-1.226,0.034c-1.224,0.112-2.442,0.108-3.664,0l-0.629-0.027c-0.373-0.261-0.824,0.013-1.211-0.175   c-2.368-0.284-4.492-1.013-5.875-3.155c-0.673-1.042-1.04-2.174-1.098-3.409c-0.129-0.391-0.042-0.794-0.064-1.189   c-0.024-0.546,0.277-0.608,0.706-0.476c0.14,0.009,0.284,0.021,0.426,0.033c0.301,0.247,0.688-0.002,1.005,0.17   c0.139,0.012,0.277,0.024,0.422,0.034c0.373,0.258,0.824-0.019,1.21,0.175c0.118,0.015,0.235,0.032,0.351,0.049   c0.345,0.188,0.735-0.006,1.074,0.155c0.144,0.009,0.286,0.018,0.425,0.027c0.376,0.26,0.824-0.015,1.207,0.175   c0.139,0.011,0.272,0.025,0.41,0.034c0.382,0.246,0.835-0.012,1.226,0.17c0.202,0.012,0.406,0.023,0.609,0.035   c0.733,0.264,1.511-0.035,2.244,0.171c0.527,0.016,1.056,0.034,1.58,0.048c0.701,0.119,1.401,0.175,2.103-0.014   c0.34-0.012,0.68-0.025,1.02-0.038c0.524-0.191,1.102,0.093,1.616-0.173c0.143-0.009,0.283-0.018,0.423-0.029   c0.385-0.193,0.837,0.084,1.21-0.174c0.14-0.012,0.281-0.022,0.425-0.03c0.313-0.175,0.704,0.073,1.004-0.175l5.32-0.841   c0.389-0.189,0.84,0.074,1.222-0.172c0.137-0.012,0.272-0.024,0.411-0.034C354.738,75.529,355.264,75.769,355.739,75.556"></path>
	<path fill="#FFFFFF" d="M322.871,119.204c-0.396-0.619-0.502-1.355-0.887-1.992c-1.188-1.974-2.951-3.41-4.592-4.939   c-4.533-4.221-9.164-8.332-13.717-12.528c-5.467-5.034-9.911-10.837-13.13-17.572c-1.527-3.208-3.348-6.259-5.716-8.947   c-0.498-0.561-0.841-0.862-1.209,0.146c-0.187,0.516-0.391,1.047-0.634,1.554c-1.855,3.885-3.654,7.801-5.56,11.662   c-1.324,2.687-2.511,5.442-3.992,8.058c-1.115,1.983-2.256,3.948-3.424,5.902c-2.554,4.281-6.148,7.745-9.063,11.736   c-1.339,1.832-2.539,3.767-2.825,6.107c-0.104,0.675-0.106,1.352,0.003,2.032c0.197,1.57,0.782,3.012,1.447,4.434   c0.157,0.342,0.315,0.249,0.542,0.178c2.772-0.866,5.178-2.292,6.99-4.612c1.78-2.281,2.969-4.882,3.964-7.572   c0.222-0.595,0.479-0.555,0.938-0.396c1.821,0.625,3.625,1.292,5.471,1.825c3.247,0.938,6.466,2.008,9.858,2.306   c0.321,0.167,0.71-0.066,1.023,0.167c0.137,0.009,0.27,0.021,0.406,0.033c0.525,0.197,1.101-0.092,1.616,0.173   c0.21,0.012,0.419,0.021,0.627,0.031c1.225,0.105,2.443,0.111,3.665,0l0.39-0.042c0.321-0.215,0.712,0.003,1.04-0.16   c0.14-0.012,0.281-0.021,0.425-0.029c0.299-0.249,0.688,0.003,1.004-0.177c0.136-0.01,0.272-0.025,0.406-0.037   c0.312-0.234,0.7,0.006,1.021-0.166c0.127-0.015,0.255-0.031,0.385-0.043c0.321-0.215,0.714,0.006,1.044-0.165   c0.119-0.015,0.237-0.033,0.354-0.047c0.338-0.189,0.729,0.003,1.07-0.153c0.205-0.012,0.411-0.026,0.614-0.037   c1.234-0.178,2.469-0.154,3.704-0.009c0.405,0.11,0.816,0.216,1.219,0.326c3.004,0.809,4.992,3.083,7.228,5.002   c1.381,1.186,2.686,2.462,4.226,3.452c0.961,0.615,1.656,0.534,2.512-0.207c0.828-0.716,1.083-1.736,1.545-2.648   C322.981,120.967,322.971,120.087,322.871,119.204 M298.631,108.833c-5.358,1.053-10.678,1.256-15.952-0.445   c-1.002-0.324-1.948-0.758-2.792-1.398c-1.653-1.265-2.193-2.928-1.601-4.929c0.474-1.602,1.264-3.056,2.098-4.484   c1.509-2.574,3.237-4.999,5.008-7.528c3.186,4.167,6.9,7.68,10.06,11.667c1.498,1.89,2.806,3.899,3.718,6.146   C299.413,108.46,299.392,108.683,298.631,108.833"></path>
	<path fill="#FFFFFF" d="M451.6,119.406c-0.403-1.016-0.725-2.062-1.431-2.941c-2.025-2.527-4.516-4.584-6.871-6.771   c-4.416-4.098-9.065-7.943-13.274-12.267c-3.079-3.167-5.921-6.502-8.133-10.363c-1.853-3.229-3.403-6.626-5.395-9.781   c-0.953-1.517-1.963-2.983-3.237-4.254c-0.298-0.296-0.583-0.557-0.824,0.009c-1.457,3.419-3.137,6.732-4.72,10.092   c-1.152,2.44-2.252,4.909-3.445,7.326c-1.554,3.164-3.217,6.271-5.07,9.273c-1.459,2.365-3.024,4.655-4.808,6.773   c-1.69,2.015-3.482,3.949-5.012,6.097c-1.165,1.629-2.226,3.332-2.515,5.382c-0.097,0.949-0.127,1.898,0.013,2.848   c0.043,0.795,0.388,1.495,0.658,2.226c1.022,2.731,0.666,2.321,2.942,1.363c2.35-0.993,4.329-2.506,5.799-4.654   c1.469-2.136,2.54-4.458,3.491-6.854c0.09-0.222-0.075-0.804,0.629-0.557c2.104,0.746,4.23,1.449,6.369,2.094   c2.592,0.782,5.193,1.541,7.885,1.926c0.313,0.185,0.703-0.07,1.004,0.179c0.073,0.011,0.146,0.02,0.219,0.028   c0.382,0.192,0.837-0.085,1.21,0.175c0.142,0.012,0.282,0.021,0.425,0.032c0.479,0.176,1.004-0.058,1.482,0.15   c0.252,0.02,0.507,0.034,0.758,0.052c1.157,0.106,2.31,0.106,3.462,0.002c0.188-0.018,0.374-0.035,0.559-0.055   c0.339-0.188,0.734,0.008,1.074-0.154c0.13-0.013,0.258-0.028,0.387-0.04c0.322-0.215,0.713,0.006,1.042-0.163   c0.131-0.015,0.258-0.028,0.388-0.042c0.321-0.215,0.713,0.012,1.04-0.165c0.519-0.293,1.086-0.246,1.647-0.228   c0.373-0.261,0.824,0.013,1.21-0.175c0.185-0.018,0.373-0.036,0.558-0.052c1.247-0.13,2.492-0.17,3.734,0.016   c1.722,0.345,3.315,1.019,4.663,2.131c2.396,1.977,4.755,4.009,7.089,6.063c1.89,1.667,3.233,1.036,4.216-0.649   c0.373-0.641,0.51-1.368,0.796-2.04C451.706,120.762,451.728,120.086,451.6,119.406 M427.434,108.816   c-2.567,0.492-5.139,0.85-7.76,0.8c-2.83,0.041-5.601-0.296-8.29-1.218c-0.352-0.121-0.697-0.249-1.039-0.394   c-2.703-1.131-4.706-3.261-2.954-7.18c1.654-3.709,4.051-6.955,6.323-10.279c0.206-0.308,0.377-0.468,0.67-0.085   c3.57,4.621,7.987,8.526,11.287,13.372c0.877,1.288,1.617,2.657,2.196,4.107C428.047,108.38,428.146,108.679,427.434,108.816"></path>
	<path fill="#FFFFFF" d="M554.424,146.235v-4.174h-7.202v-6.051h-4.173v20.133c0,2.421,1.943,4.397,4.399,4.397h6.976v-4.174h-6.976   c-0.129,0-0.227-0.096-0.227-0.224v-9.907H554.424z"></path>
	<path fill="#FFFFFF" d="M525.862,156.366c-0.127,0-0.221-0.094-0.221-0.222v-9.683c0-0.128,0.094-0.226,0.221-0.226h14.306v-4.174   h-14.306c-2.42,0-4.396,1.975-4.396,4.4v9.683c0,2.421,1.976,4.396,4.396,4.396h14.369v-4.174H525.862z"></path>
	<path fill="#FFFFFF" d="M518.647,153.403v-6.946c0-2.42-1.975-4.395-4.396-4.395h-9.97c-2.424,0-4.398,1.974-4.398,4.395v9.687   c0,2.42,1.975,4.396,4.398,4.396h14.366v-4.174h-14.366c-0.127,0-0.225-0.095-0.225-0.222v-2.74H518.647z M504.057,146.457   c0-0.127,0.098-0.22,0.225-0.22h9.97c0.127,0,0.223,0.093,0.223,0.22v2.74h-10.417V146.457z"></path>
	<path fill="#FFFFFF" d="M492.668,142.061H478.3v18.477h4.174v-14.081c0-0.127,0.093-0.22,0.221-0.22h9.974   c0.127,0,0.223,0.093,0.223,0.22v14.081h4.174v-14.081C497.064,144.037,495.089,142.061,492.668,142.061"></path>
	<path fill="#FFFFFF" d="M471.083,142.061h-14.369v18.477h4.176v-14.081c0-0.127,0.095-0.22,0.224-0.22h9.97   c0.128,0,0.224,0.093,0.224,0.22v14.081h4.172v-14.081C475.479,144.037,473.504,142.061,471.083,142.061"></path>
	<path fill="#FFFFFF" d="M449.503,142.063h-9.975c-2.421,0-4.396,1.974-4.396,4.395v9.687c0,2.42,1.976,4.396,4.396,4.396h9.975   c2.419,0,4.395-1.976,4.395-4.396v-9.687C453.897,144.037,451.922,142.063,449.503,142.063 M449.723,156.144   c0,0.127-0.093,0.222-0.22,0.222h-9.975c-0.128,0-0.222-0.095-0.222-0.222v-9.687c0-0.127,0.094-0.22,0.222-0.22h9.975   c0.127,0,0.22,0.093,0.22,0.22V156.144z"></path>
	<path fill="#FFFFFF" d="M417.946,156.366c-0.129,0-0.224-0.094-0.224-0.222v-9.683c0-0.128,0.095-0.226,0.224-0.226h14.302v-4.174   h-14.302c-2.421,0-4.399,1.975-4.399,4.4v9.683c0,2.421,1.979,4.396,4.399,4.396h14.368v-4.174H417.946z"></path>
	<polyline fill="#FFFFFF" points="380.215,150.754 384.401,158.083 380.213,165.414 363.304,165.414 354.845,150.767    363.304,136.119 380.213,136.119 375.98,143.448 367.532,143.448 363.304,150.767 367.532,158.083 375.98,158.083 380.197,150.754     "></polyline>
	<polygon fill="#C6C9CA" points="380.196,150.755 384.425,143.448 388.65,150.776 384.403,158.083  "></polygon>
	<polygon fill="#787878" points="375.979,158.083 371.744,150.764 380.192,136.119 397.1,136.119 405.557,150.764 397.1,165.416    380.171,165.416 384.402,158.083 392.871,158.083 397.1,150.764 392.871,143.448 384.425,143.448  "></polygon>
	<path fill="#231F20" d="M17.622,116.525c-0.016-0.13-0.028-0.26-0.04-0.388c-0.197-0.458,0.085-0.976-0.173-1.43   c-0.011-0.137-0.018-0.272-0.029-0.408c-0.197-0.534,0.078-1.12-0.167-1.65c-0.012-0.198-0.024-0.397-0.038-0.593   c-0.202-0.669,0.09-1.377-0.17-2.041c-0.012-0.27-0.022-0.542-0.037-0.816c-0.197-0.915,0.085-1.851-0.154-2.76   c-0.018-0.983-0.034-1.97-0.052-2.953c-0.104-0.948-0.107-1.902,0.005-2.85c0.01-0.752,0.019-1.504,0.029-2.26   c0.284-1.068-0.041-2.171,0.172-3.25c0.011-0.275,0.022-0.551,0.031-0.831c0.273-0.655-0.031-1.361,0.177-2.023   c0.018-0.188,0.033-0.372,0.047-0.562c0.216-0.475-0.024-1.001,0.159-1.479c0.009-0.14,0.015-0.283,0.023-0.425   c0.261-0.374-0.009-0.822,0.177-1.207c0.015-0.188,0.032-0.374,0.051-0.562c0.191-0.336-0.005-0.729,0.154-1.07   c0.012-0.131,0.028-0.262,0.042-0.389c0.215-0.321-0.009-0.712,0.164-1.042c0.396-4.499,1.842-8.687,4.011-12.605   c2.566-4.646,5.587-8.993,8.961-13.109c2.102-2.567,4.579-4.816,6.484-7.524c2.645-3.757,5.73-7.112,9.085-10.199   c4.072-3.747,8.646-6.822,13.551-9.431c4.858-2.584,9.925-4.605,15.179-6.203c3.048-0.926,6.168-1.508,9.276-2.168   c0.311-0.184,0.704,0.071,1.002-0.176c0.074-0.01,0.149-0.019,0.222-0.028c0.339-0.163,0.735,0.034,1.071-0.154   c0.118-0.018,0.24-0.032,0.358-0.048c0.397-0.186,0.852,0.063,1.24-0.168c0.2-0.012,0.397-0.027,0.596-0.042   c0.46-0.188,0.976,0.087,1.425-0.167c0.206-0.012,0.411-0.023,0.616-0.037c0.728-0.201,1.502,0.107,2.227-0.172   c0.417-0.009,0.828-0.02,1.241-0.032c1.629-0.104,3.26-0.104,4.886,0c0.411,0.012,0.819,0.027,1.226,0.039   c0.665,0.258,1.372-0.029,2.042,0.166c0.203,0.014,0.406,0.025,0.612,0.037c0.453,0.258,0.968-0.028,1.426,0.174l0.388,0.039   c0.322,0.216,0.712-0.009,1.044,0.161c1.989,0.513,4.027,0.828,6.012,1.401c2.09,0.607,4.136,1.316,6.052,2.333   c2.252,1.195,4.73,1.727,7.091,2.61c7.132,2.666,13.917,6.005,20.363,10.048c2.617,1.641,5.135,3.416,7.65,5.207   c2.096,1.491,3.453,3.591,4.784,5.693c2.984,4.709,5.639,9.604,8.098,14.6c3.378,6.866,6.519,13.837,8.754,21.179   c0.677,2.226,1.345,4.465,1.605,6.791c0.021,0.195,0.143,0.379,0.215,0.566c0.197,0.46-0.084,0.976,0.173,1.427   c0.012,0.341,0.024,0.68,0.037,1.022c0.096,0.402,0.102,0.81-0.008,1.217c-0.009,0.209-0.017,0.415-0.026,0.628   c-0.258,0.373,0.015,0.821-0.173,1.206c-0.333,1.274-0.794,2.527-0.609,3.883c0.105,2.651,0.105,5.3,0,7.951   c-0.04,0.616-0.222,1.228-0.005,1.844c0.114,1.832,0.105,3.667,0.005,5.5c-1.944,6.611-3.495,13.351-6.182,19.719   c-2.469,5.857-5.554,11.375-9.346,16.499c-2.557,3.455-5.332,6.72-8.402,9.719c-5.161,5.032-10.896,9.294-17.202,12.802   c-2.852,1.582-5.792,3.002-8.799,4.212c-3.93,1.583-8.014,2.755-12.145,3.734c-1.543,0.368-3.118,0.594-4.683,0.887   c-0.318,0.175-0.709-0.065-1.019,0.169c-0.136,0.009-0.27,0.021-0.406,0.033c-0.385,0.192-0.838-0.085-1.21,0.177   c-0.143,0.01-0.283,0.019-0.422,0.031c-0.454,0.19-0.967-0.093-1.414,0.171c-0.208,0.012-0.418,0.022-0.626,0.034   c-0.607,0.191-1.253-0.087-1.857,0.159c-0.264,0.015-0.53,0.027-0.793,0.042c-2.925,0.112-5.847,0.103-8.767,0   c-0.374-0.015-0.747-0.03-1.12-0.045c-0.564-0.217-1.167,0.018-1.737-0.158c-0.203-0.012-0.408-0.026-0.613-0.035   c-0.452-0.254-0.964,0.022-1.429-0.168c-0.14-0.01-0.278-0.021-0.42-0.031c-0.374-0.262-0.825,0.012-1.208-0.177   c-0.137-0.01-0.274-0.021-0.41-0.033c-0.313-0.234-0.701,0.005-1.019-0.169c-3.601-0.355-7.065-1.356-10.522-2.337   c-5.267-1.496-10.237-3.737-15.052-6.31c-3.337-1.786-6.565-3.803-9.494-6.212c-2.241-1.844-4.799-3.167-7.162-4.799   c-1.823-1.262-3.606-2.571-5.12-4.221c-1.25-1.363-2.694-2.546-3.855-3.999c-1.614-2.017-3.146-4.091-4.489-6.294   c-1.181-1.94-2.344-3.897-3.301-5.966c-1.949-4.237-3.606-8.582-4.941-13.058c-1.051-3.537-1.737-7.154-2.553-10.738   c-0.254-1.123-0.315-2.287-0.468-3.431c-0.161-0.343,0.037-0.734-0.154-1.075l-0.049-0.355   C17.603,117.371,17.851,116.916,17.622,116.525 M35.087,56.222c-0.883,0.666-1.292,1.345-1.798,1.934   c-3.796,4.403-7.281,9.035-10.09,14.141c-1.58,2.869-3.076,5.79-3.754,9.042c-1.023,4.882-1.566,9.814-1.869,14.793   c-0.428,7.063-0.043,14.085,0.724,21.089c0.364,3.318,0.929,6.637,1.702,9.882c1.398,5.87,3.17,11.633,5.681,17.146   c3.088,6.766,6.962,12.988,12.443,18.108c1.766,1.65,3.619,3.201,5.626,4.559c0.188,0.127,0.362,0.261,0.498,0.083   c0.154-0.201-0.179-0.332-0.203-0.448c-0.164-0.724-0.892-0.738-1.308-1.134c-3.126-2.977-6.012-6.178-8.565-9.654   c-6.119-8.333-10.669-17.412-13.235-27.491c-1.17-4.605-1.983-9.238-2.448-13.948c-0.664-6.758-0.327-13.493,0.801-20.174   c1.656-9.789,4.938-19.025,10.171-27.482C31.504,63.366,33.064,59.841,35.087,56.222"></path>
	<path fill="#98AA3D" d="M97.253,172.492c-16.012-0.181-30.157-5.397-42.203-15.987c-11.314-9.954-18.435-22.423-21.002-37.26   c-3.319-19.161,1.049-36.597,13.025-51.931c8.857-11.337,20.369-18.976,34.38-22.368c21.648-5.237,41.11-0.504,57.964,14.041   c11.323,9.768,18.373,22.25,20.888,36.978c3.682,21.573-1.93,40.612-16.92,56.647c-9.558,10.222-21.419,16.419-35.182,18.938   C104.59,172.211,100.938,172.537,97.253,172.492"></path>
	<path fill="#231F20" d="M114.527,122.663c0.033,0.004,0.075-0.009,0.099,0.01c2.833,2.125,6.243,1.886,9.44,1.926   c2.244,0.027,4.287,0.191,6.252,1.25c0.518,0.278,1.098,0.299,1.686,0.272c1.53-0.069,3.049,0.024,4.578,0.16   c2.11,0.189,3.251,1.38,3.815,3.265c0.544,1.798,0.495,3.62-0.069,5.415c-0.762,2.42-1.923,3.166-4.423,2.772   c-1.616-0.257-3.233-0.456-4.869-0.352c-0.755,0.048-1.401-0.235-2.022-0.58c-1.824-1.016-3.746-1.358-5.801-0.953   c-0.611,0.122-1.224-0.005-1.822-0.104c-2.105-0.348-4.201-0.755-6.34-0.889c-0.391-0.027-0.819-0.172-1.146-0.391   c-1.902-1.262-4.055-1.468-6.24-1.561c-5.292-0.222-10.58-0.532-15.813-1.42c-0.476-0.079-0.837-0.125-0.802,0.594   c0.219,4.307-0.2,8.628,0.216,12.938c0.151,1.599,0.458,3.155,1.08,4.641c0.831,1.996,0.437,3.761-1.265,5.068   c-4.026,3.101-8.411,1.733-10.632-2.713c-1.377-2.759-1.608-5.875-2.033-8.898c-0.148-1.08-0.339-2.123-0.771-3.14   c-1.088-2.561-1.528-5.277-1.67-8.032c-0.231-4.467-0.307-8.943-0.596-13.407c-0.478-7.439-0.897-14.891-2.092-22.265   c-0.403-2.479-0.977-4.923-1.479-7.383c-1.071-5.248-2.956-10.292-3.878-15.574c-0.327-1.872-0.623-3.746-0.93-5.622   c-0.538-3.313,1.358-4.833,3.685-5.597c1.726-0.57,3.476-0.489,5.187,0.167c1.453,0.554,2.287,1.639,2.317,3.167   c0.137,6.794,1.714,13.327,3.78,19.725c1.841,5.703,2.62,11.562,3.391,17.448c0.213,1.611,0.395,3.228,0.612,5.053   c0.422-0.574,0.738-0.995,1.044-1.423c2.973-4.104,6.4-7.844,9.549-11.809c1.355-1.701,2.584-3.491,3.679-5.377   c1.563-2.692,3.697-4.948,5.714-7.287c1.6-1.854,3.21-3.694,4.533-5.768c0.738-1.152,1.352-2.357,1.717-3.676   c0.443-1.61,1.577-2.452,3.127-2.68c3.54-0.524,7.307,1.626,7.635,6.016c0.215,2.912-0.787,5.323-2.118,7.703   c-2.251,4.017-5.218,7.535-7.908,11.248c-4.608,6.371-10.058,12.052-14.828,18.288c-1.207,1.587-2.316,3.238-3.473,5.006   c2.918,0.446,5.69,0.856,8.46,1.297c1.675,0.267,3.355,0.519,4.981,1.016c1.581,0.483,3.066,1.156,4.113,2.497   c0.382,0.495,0.831,0.334,1.282,0.362C113.737,122.688,114.096,122.587,114.527,122.663"></path>
	<path fill="#231F20" d="M250.41,127.596c-0.119-0.018-0.234-0.034-0.35-0.051c-0.342-0.179-0.733,0.005-1.08-0.153   c-0.188-0.018-0.373-0.033-0.559-0.047c-0.892-0.228-1.81,0.036-2.701-0.151c-0.975-0.133-1.72-0.817-2.645-1.06   c-0.908-0.172-1.815-0.151-2.721-0.015c-0.183,0.006-0.371,0.012-0.556,0.015c-0.451-0.252-0.964,0.024-1.426-0.167   c-0.748-0.148-1.494-0.296-2.244-0.445c-0.665-0.258-1.372,0.031-2.041-0.167c-0.503-0.009-0.975-0.119-1.356-0.473   c-0.542-0.503-1.283-0.517-1.923-0.784c-0.303-0.246-0.691,0.006-1.004-0.171c-0.255-0.018-0.51-0.034-0.765-0.052   c-0.958-0.23-1.947,0.046-2.909-0.152c-0.334-0.012-0.668-0.027-0.998-0.041c-0.743-0.249-1.522,0.038-2.269-0.165l-0.625-0.027   c-0.585-0.28-1.228,0.034-1.824-0.176l-0.421-0.026c-0.442-0.27-0.959,0.021-1.415-0.177c-0.136-0.013-0.271-0.025-0.406-0.034   c-0.312-0.234-0.697,0-1.019-0.166c-0.144-0.012-0.286-0.021-0.428-0.034c-0.3-0.249-0.692,0.006-1.004-0.176   c-0.602-0.116-0.389,0.301-0.379,0.587c0.154,2.877,0.021,5.758,0.072,8.638c0.006,0.402-0.087,0.816,0.082,1.208   c0.019,0.184,0.034,0.374,0.051,0.557c0.177,0.316-0.072,0.702,0.174,1.004c-0.012,0.981,0.361,1.841,0.84,2.666   c0.112,0.61,0.121,1.223-0.006,1.834c-0.73,1.597-2.145,2.328-3.694,2.883c-0.68,0.119-1.356,0.119-2.035-0.002   c-2.027-0.583-3.412-1.85-4.114-3.85c-0.493-1.41-0.867-2.848-1.022-4.336c-0.171-0.332,0.055-0.723-0.163-1.041   c-0.013-0.131-0.028-0.262-0.042-0.39c-0.158-0.34,0.037-0.733-0.152-1.069c-0.165-1.454-0.94-2.719-1.278-4.126   c-0.09-0.376,0.01-0.785-0.203-1.128c-0.177-0.315,0.075-0.702-0.174-1.004c-0.009-0.142-0.021-0.282-0.029-0.424   c-0.197-0.521,0.09-1.102-0.177-1.617c0.089-0.613-0.44-1.167-0.182-1.798c0.138-0.903,0.159-1.804-0.014-2.706   c-0.012-0.475-0.024-0.952-0.037-1.429c-0.2-1.222,0.095-2.468-0.16-3.691l-0.047-1.204c-0.172-0.315,0.076-0.704-0.172-1.004   c-0.006-0.073-0.018-0.148-0.024-0.218c-0.215-1.363,0.101-2.746-0.166-4.104c-0.017-0.265-0.031-0.532-0.043-0.795   c-0.185-0.539,0.08-1.123-0.161-1.652c-0.015-0.197-0.027-0.395-0.042-0.593c-0.177-0.479,0.061-1.003-0.153-1.478   c-0.018-0.187-0.033-0.374-0.052-0.56c-0.194-0.455,0.089-0.967-0.171-1.413c-0.013-0.142-0.022-0.281-0.034-0.424   c-0.182-0.392,0.078-0.841-0.168-1.223c-0.009-0.136-0.021-0.272-0.033-0.409c-0.188-0.388,0.075-0.844-0.17-1.224   c-0.012-0.136-0.024-0.273-0.033-0.409c-0.17-0.328,0.053-0.719-0.164-1.041c-0.425-2.168-0.846-4.338-1.271-6.51   c-0.16-0.328,0.058-0.715-0.158-1.034c-1.162-4.001-2.372-7.983-3.055-12.109c-0.084-0.507-0.07-1.046-0.252-1.544   c-0.165-0.332,0.055-0.72-0.16-1.04l-0.042-0.389c-0.098-0.746-0.127-1.492,0.017-2.238c0.64-1.709,2.048-2.358,3.693-2.684   c0.606-0.112,1.216-0.103,1.829-0.004c1.277,0.322,2.498,0.732,3.091,2.078c0.178,0.409-0.046,0.868,0.157,1.274   c0.018,0.326,0.037,0.646,0.055,0.971c0.182,0.545-0.067,1.138,0.148,1.683c0.019,0.185,0.037,0.373,0.052,0.562   c0.158,0.339-0.033,0.734,0.155,1.071c0.015,0.118,0.033,0.236,0.048,0.355c0.176,0.321-0.064,0.712,0.17,1.021   c0.218,2.46,0.989,4.793,1.626,7.155c0.846,3.118,1.856,6.194,2.49,9.372c0.173,0.316-0.064,0.708,0.17,1.019l0.033,0.406   c0.182,0.483-0.058,1.004,0.155,1.484l0.049,0.354c0.175,0.318-0.063,0.709,0.169,1.022c0.012,0.135,0.025,0.271,0.037,0.407   c0.173,0.32-0.064,0.71,0.168,1.019c0.013,0.136,0.025,0.273,0.035,0.409c0.158,0.343-0.035,0.734,0.155,1.07   c0.017,0.188,0.032,0.374,0.05,0.562c0.179,0.388-0.079,0.84,0.167,1.223v1.352c1.056-1.372,1.896-2.499,2.775-3.595   c1.474-1.838,2.926-3.7,4.483-5.474c1.801-2.052,3.216-4.36,4.684-6.638c0.944-1.455,2.168-2.699,3.279-4.032   c2.125-2.538,4.507-4.91,5.442-8.261c0.313-1.108,1.328-1.532,2.399-1.751c0.539-0.101,1.08-0.101,1.623,0   c1.653,0.438,3.136,1.12,3.842,2.82c0.225,0.545,0.326,1.137,0.482,1.709c0.104,0.812,0.104,1.626-0.002,2.438   c-1.717,5.208-5.416,9.166-8.536,13.479c-2.906,4.015-6.304,7.627-9.416,11.471c-1.416,1.75-2.694,3.598-3.995,5.43   c-0.138,0.191-0.223,0.348,0.09,0.431c0.304,0.246,0.692,0,1.007,0.169c0.142,0.011,0.28,0.022,0.424,0.034   c0.301,0.246,0.689,0,1.005,0.174c0.136,0.011,0.27,0.023,0.405,0.035c0.31,0.235,0.701-0.005,1.019,0.17   c0.523,0.284,1.086,0.261,1.65,0.234c0.3,0.247,0.691-0.007,1.004,0.176c0.831,0.435,1.781,0.421,2.664,0.594   c1.438,0.283,2.691,0.864,3.864,1.685c0.41-0.035,0.613,0.752,1.128,0.281c0.086-0.098,0.17-0.194,0.313-0.092   c0.692,0.068,1.253,0.414,1.748,0.869c0.255,0.237,0.489,0.453,0.866,0.379c0.672,0.234,1.389-0.033,2.067,0.158   c0.454,0.221,0.932,0.286,1.426,0.238c0.313,0.235,0.704-0.005,1.022,0.175c0.55,0.087,1.094,0.074,1.641-0.005   c0.747-0.095,1.493-0.119,2.24,0.012c0.897,0.311,1.661,0.962,2.649,1.042c0.496,0.176,0.99,0.145,1.487,0.018l0.568-0.021   c0.657,0.273,1.363-0.026,2.023,0.169c1.501,0.213,2.678,0.847,3.198,2.378c0.104,0.31-0.005,0.689,0.308,0.929   c0.106,0.879,0.116,1.762-0.005,2.645c-0.224,0.576-0.421,1.164-0.679,1.728c-0.315,0.692-0.81,1.209-1.597,1.372   C251.356,127.7,250.882,127.706,250.41,127.596"></path>
	<path fill="#231F20" d="M561.943,77.167c0.209-0.009,0.416-0.018,0.625-0.029c2.174-0.11,4.35-0.113,6.521,0.003   c0.767,0.214,1.534,0.426,2.304,0.646c1.858,0.533,2.897,1.798,3.245,3.673c0.1,0.883,0.106,1.763-0.003,2.646   c-0.287,0.848-0.66,1.674-0.829,2.542c-0.19,0.977-0.686,0.938-1.42,0.686c-2.102-0.725-4.188-1.514-6.369-1.986   c-3.78-0.826-7.505-0.32-11.117,0.828c-7.832,2.487-14.643,6.679-20.249,12.716c-2.101,2.263-3.594,4.908-4.13,8.014   c-0.831,4.816,0.906,7.875,5.48,9.652c2.136,0.827,4.375,1.23,6.631,1.37c6.574,0.407,12.986-0.437,19.153-2.819   c2.032-0.785,3.97-1.746,5.505-3.359c0.739-0.777,1.256-1.669,1.488-2.725c0.408-1.804-0.263-2.99-2.047-3.466   c-2.195-0.593-4.431-0.474-6.673-0.32c-5.442,0.385-10.825,1.38-16.29,1.535c-0.778,0.022-1.543,0.01-2.311-0.213   c-0.704-0.205-0.771-0.535-0.485-1.125c0.81-1.684,2.124-2.879,3.679-3.838c3.563-2.203,7.523-3.325,11.539-4.302   c4.727-1.152,9.507-1.857,14.383-1.759c1.363,0.031,2.647,0.36,3.839,1.113c1.495,0.945,2.002,2.442,2.468,3.993   c0.165,0.328-0.053,0.718,0.162,1.04c0,1.478,0,2.955,0,4.435c-0.211,1.202-0.043,2.411-0.098,3.617   c-0.018,0.367,0.062,0.738-0.069,1.1l-0.023,1.035c-0.289,0.933,0.036,1.905-0.174,2.841c-0.018,0.388-0.035,0.779-0.054,1.172   c-0.23,0.961,0.045,1.948-0.152,2.909l-0.052,1.168c-0.23,1.1,0.043,2.219-0.15,3.32c-0.013,0.412-0.022,0.826-0.034,1.239   c-0.246,1.396-0.039,2.802-0.105,4.2c-0.031,0.567,0.075,1.141-0.068,1.702c-0.015,0.267-0.027,0.532-0.038,0.795   c-0.231,0.394,0.015,0.846-0.167,1.246c-0.385,1.195-0.595,2.437-1.211,3.574c-1.119,2.068-2.894,3.106-5.102,3.573   c-0.224,0.045-0.441,0.133-0.661,0.189c-1.435,0.351-1.583,0.221-1.593-1.327c0-0.166-0.042-0.334-0.066-0.501   c-0.158-0.342,0.033-0.738-0.153-1.073c-0.017-0.189-0.035-0.373-0.054-0.562c-0.172-0.397,0.067-0.852-0.157-1.243   c-0.015-0.197-0.031-0.396-0.043-0.591c-0.197-0.678,0.078-1.39-0.163-2.063c-0.017-0.399-0.027-0.802-0.04-1.201   c-0.15-2.166-0.023-4.335-0.069-6.5c-0.009-0.371,0.075-0.75-0.085-1.107c0.109-0.743-0.148-1.114-0.959-0.972   c-0.29,0.055-0.597,0.03-0.901,0.042c-1.027,0.21-2.083-0.081-3.111,0.158c-0.255,0.016-0.509,0.031-0.762,0.048   c-0.671,0.203-1.38-0.088-2.044,0.169c-0.204,0.014-0.406,0.025-0.609,0.034c-0.592,0.209-1.235-0.1-1.821,0.176   c-0.209,0.012-0.418,0.021-0.627,0.03c-0.594,0.204-1.234-0.099-1.823,0.178l-0.626,0.026c-0.618,0.194-1.272-0.071-1.889,0.154   c-0.255,0.015-0.51,0.033-0.766,0.049c-0.688,0.194-1.406-0.069-2.095,0.155c-0.321,0.018-0.641,0.036-0.961,0.051   c-2.516,0.106-5.03,0.106-7.544,0c-0.265-0.012-0.529-0.026-0.796-0.042c-0.461-0.237-0.983,0.026-1.45-0.165   c-0.126-0.013-0.254-0.028-0.384-0.043c-0.322-0.215-0.713,0.012-1.044-0.16c-3.174-0.479-6.124-1.41-8.679-3.525   c-2.159-1.786-3.317-4.062-4.063-6.662c-0.11-0.368,0.081-0.743-0.147-1.069c-0.171-0.323,0.065-0.71-0.169-1.022   c-0.012-0.205-0.024-0.407-0.037-0.613c-0.102-1.357-0.102-2.717,0-4.07l0.035-0.628c0.258-0.373-0.021-0.826,0.171-1.208   c0.581-4.189,2.367-7.809,4.964-11.124c3.449-4.416,7.887-7.506,12.729-10.161c4.066-2.225,8.366-3.78,12.813-4.963   c1.58-0.419,3.215-0.622,4.827-0.926c0.391-0.187,0.842,0.077,1.226-0.168l0.404-0.034   C560.849,77.146,561.428,77.434,561.943,77.167"></path>
	<path fill="#231F20" d="M458.718,92.058c-0.009-0.133-0.021-0.27-0.034-0.406c-0.181-0.397,0.064-0.853-0.163-1.244   c-0.014-0.196-0.027-0.394-0.043-0.591c-0.199-0.668,0.092-1.377-0.166-2.042V85.95c0.23-0.314-0.004-0.702,0.164-1.022   c0.482-1.979,0.931-2.586,2.694-2.891c0.335-0.104,0.672-0.104,1.012-0.003c7.014,1.703,12.679,5.936,18.493,9.874   c4.345,2.938,8.397,6.27,12.429,9.618c2.834,2.352,5.612,4.766,8.426,7.135c0.532,0.442,1.129,0.813,1.732,1.242   c0.204-0.421,0.073-0.832,0.335-1.118c0.248-0.304-0.004-0.692,0.178-1.007c0.009-0.133,0.021-0.272,0.033-0.408   c0.266-0.591-0.033-1.237,0.171-1.837v-2.864c-0.213-0.868,0.103-1.771-0.178-2.636c-0.007-0.209-0.018-0.418-0.026-0.629   c-0.206-0.66,0.093-1.367-0.178-2.023c-0.01-0.212-0.019-0.417-0.028-0.628c-0.185-0.547,0.064-1.14-0.152-1.685   c-0.017-0.185-0.032-0.374-0.047-0.558c-0.185-0.479,0.054-1.004-0.158-1.48c-0.016-0.189-0.034-0.374-0.052-0.563   c-0.186-0.465,0.075-0.985-0.16-1.449c-0.012-0.4-0.028-0.801-0.044-1.201c-0.103-0.336-0.097-0.677-0.002-1.015   c0.015-0.603,0.029-1.208,0.046-1.813c0.245-0.604-0.031-1.25,0.16-1.86c0.018-0.184,0.036-0.369,0.052-0.558   c0.188-0.34-0.006-0.731,0.158-1.073c0.396-4.02,2.359-6.99,5.945-8.87c0.373-0.196,0.585-0.045,0.805,0.3   c1.413,2.188,2.796,4.392,4.105,6.649c0.807,1.392,0.532,2.57-0.197,3.826c-0.762,1.319-1.589,2.625-1.649,4.226   c-0.262,0.373,0.018,0.825-0.177,1.207v2.454c0.2,0.678-0.079,1.392,0.168,2.062c0.011,0.198,0.026,0.394,0.043,0.592   c0.163,0.331-0.056,0.722,0.156,1.043c0.016,0.127,0.028,0.258,0.043,0.385c0.18,0.314-0.072,0.705,0.176,1.004   c0.054,1.815,0.573,3.552,0.893,5.318c0.611,3.368,1.31,6.715,1.956,10.078c0.437,2.283,0.843,4.573,1.262,6.86   c0.175,0.314-0.074,0.702,0.172,1.004c0.014,0.142,0.021,0.283,0.035,0.425c0.159,0.33-0.056,0.719,0.159,1.041v0.767   c-0.875,0.231-1.758,0.134-2.641,0.057c-2.876-0.14-5.41-1.358-7.924-2.578c-4.146-2.011-8.111-4.366-12.111-6.65   c-3.398-1.937-6.513-4.242-9.496-6.779c-2.727-2.315-5.423-4.67-8.18-6.945c-2.877-2.37-5.723-4.815-9.016-6.635   c-0.177,1.42-0.169,2.84,0,4.26c0.009,0.542,0.022,1.088,0.034,1.632c0.215,1.346-0.109,2.719,0.176,4.064   c0.009,0.412,0.019,0.825,0.027,1.238c0.112,2.241,0.112,4.485,0,6.725c-0.009,0.143-0.019,0.281-0.027,0.424   c-0.249,0.305,0.003,0.693-0.173,1.004c-0.377,1.096-0.538,2.257-1.071,3.305c-1.158,2.255-3.111,3.37-5.495,3.876   c-0.393,0.182-0.844-0.076-1.226,0.166c-0.404-0.091-0.864,0.19-1.222-0.195c0.237-0.312-0.002-0.7,0.171-1.02   c0.013-0.136,0.021-0.274,0.033-0.41c0.233-0.31,0-0.698,0.167-1.019c0.013-0.141,0.023-0.283,0.034-0.425   c0.261-0.374-0.02-0.825,0.178-1.208c0.017-0.118,0.03-0.235,0.046-0.354c0.188-0.34-0.003-0.731,0.155-1.075   c0.013-0.137,0.023-0.27,0.033-0.406c0.246-0.382-0.016-0.836,0.173-1.226c0.009-0.137,0.021-0.273,0.029-0.406   c0.246-0.382-0.012-0.833,0.171-1.224c0.018-0.186,0.034-0.374,0.051-0.559c0.222-0.616-0.036-1.271,0.151-1.89   c0.013-0.341,0.025-0.679,0.038-1.019c0.185-1.583,0.146-3.169,0.015-4.757c-0.015-0.252-0.034-0.506-0.053-0.761   c-0.176-0.481,0.058-1.004-0.151-1.48c-0.017-0.188-0.036-0.372-0.054-0.561c-0.151-0.342,0.037-0.735-0.148-1.073   c-0.017-0.116-0.034-0.233-0.049-0.353c-0.176-0.332,0.052-0.722-0.165-1.043c-0.015-0.128-0.025-0.259-0.041-0.386   c-0.18-0.315,0.073-0.703-0.176-1.007c-0.006-0.072-0.018-0.145-0.025-0.217c-0.186-0.313,0.069-0.705-0.178-1.007   c-0.011-0.071-0.02-0.142-0.028-0.219c-0.182-0.311,0.069-0.704-0.176-1.004c-0.009-0.071-0.018-0.145-0.027-0.217   c-0.179-0.321,0.063-0.71-0.174-1.022c-0.011-0.135-0.021-0.271-0.031-0.408C458.715,92.76,458.952,92.371,458.718,92.058"></path>
	<path fill="#231F20" d="M355.739,75.556l0.762-0.05c0.883-0.107,1.766-0.107,2.648,0c0.186,0.073,0.361,0.174,0.553,0.216   c2.714,0.549,2.435,1.597,2.714,3.283c-0.236,0.308,0.009,0.702-0.176,1.019c-2.182,6.638-6.442,12.139-9.876,18.09   c-2.543,4.408-5.25,8.718-7.551,13.262c-0.072,0.148-0.157,0.29-0.224,0.441c-0.738,1.626-0.731,1.638,1.04,1.687   c0.34,0.188,0.729,0,1.073,0.153c0.206,0.009,0.42,0.021,0.629,0.033c1.433,0.188,2.862,0.163,4.298,0.011   c0.264-0.011,0.527-0.026,0.795-0.038c0.728-0.213,1.5,0.104,2.227-0.179c0.209-0.011,0.417-0.02,0.628-0.028   c0.591-0.203,1.233,0.098,1.82-0.175c0.208-0.009,0.417-0.021,0.628-0.031c0.6-0.2,1.243,0.097,1.837-0.17   c0.273-0.012,0.543-0.023,0.817-0.035c0.803-0.2,1.644,0.104,2.446-0.166c0.407-0.011,0.817-0.023,1.225-0.032   c1.084-0.116,2.17-0.109,3.256-0.002c0.334,0.014,0.668,0.026,0.999,0.042c0.532,0.244,1.115-0.034,1.652,0.163   c0.137,0.009,0.272,0.021,0.411,0.029c0.308,0.238,0.703-0.012,1.019,0.181c1.155,0.485,2.419,0.597,3.563,1.188   c1.881,0.972,3.1,2.503,4.128,4.266c0.177,0.299,0.089,0.461-0.175,0.631c-2.309,1.496-4.518,3.161-7.091,4.206   c-0.605,0.246-1.242,0.252-1.841-0.066c-1.519-0.801-2.99-1.705-4.712-2.035c-0.517-0.268-1.098,0.025-1.621-0.176   c-0.202,0-0.408,0.003-0.616,0.003c-1.021,0.204-2.064-0.098-3.085,0.16c-0.194,0.013-0.391,0.028-0.588,0.038   c-0.53,0.199-1.109-0.08-1.635,0.175c-0.135,0.009-0.271,0.018-0.403,0.03c-0.413,0.177-0.874-0.045-1.279,0.155   c-0.186,0.02-0.371,0.037-0.56,0.055c-0.315,0.172-0.702-0.073-1.007,0.172c-0.139,0.01-0.282,0.022-0.422,0.031   c-0.315,0.173-0.703-0.072-1.004,0.173c-0.073,0.009-0.146,0.018-0.218,0.027c-0.321,0.179-0.712-0.06-1.022,0.172   c-1.769,0.047-3.458,0.583-5.184,0.867c-3.256,0.535-6.488,1.182-9.731,1.788c-0.74,0.136-1.484,0.292-2.225,0.44   c-0.311,0.176-0.703-0.073-1.003,0.171c-0.143,0.014-0.282,0.025-0.425,0.034c-0.317,0.168-0.709-0.066-1.019,0.168   c-0.136,0.012-0.272,0.021-0.407,0.033c-0.363,0.077-0.762,0.199-0.644-0.436l0.044-0.794c0.214-0.322-0.009-0.713,0.162-1.042   c0.153-1.79,0.808-3.448,1.409-5.107c0.811-2.239,1.725-4.435,2.838-6.546c0.088-0.164,0.068-0.385,0.098-0.583   c0.055-0.313,0.182-0.588,0.41-0.816c0.116-0.207,0.229-0.415,0.349-0.625c0.127-0.686,0.497-1.256,0.876-1.823   c0.57-0.408,0.712-1.086,1.031-1.65c1.284-2.259,2.532-4.542,3.819-6.8c1.189-2.085,2.411-4.153,3.619-6.23   c1.438-2.473,2.876-4.949,4.311-7.419c0.296-0.513,0.581-1.032,0.873-1.545c0.084-0.312-0.136-0.339-0.337-0.333   c-1.681,0.038-3.36-0.112-5.038,0.082c-0.459,0.017-0.916,0.034-1.377,0.049c-1.283,0.214-2.594-0.106-3.873,0.169   c-0.411,0.008-0.817,0.022-1.226,0.034c-1.224,0.112-2.442,0.108-3.664,0l-0.629-0.027c-0.373-0.261-0.824,0.013-1.211-0.175   c-2.368-0.284-4.492-1.013-5.875-3.155c-0.673-1.042-1.04-2.174-1.098-3.409c-0.129-0.391-0.042-0.794-0.064-1.189   c-0.024-0.546,0.277-0.608,0.706-0.476c0.14,0.009,0.284,0.021,0.426,0.033c0.301,0.247,0.688-0.002,1.005,0.17   c0.139,0.012,0.277,0.024,0.422,0.034c0.373,0.258,0.824-0.019,1.21,0.175c0.118,0.015,0.235,0.032,0.351,0.049   c0.345,0.188,0.735-0.006,1.074,0.155c0.144,0.009,0.286,0.018,0.425,0.027c0.376,0.26,0.824-0.015,1.207,0.175   c0.139,0.011,0.272,0.025,0.41,0.034c0.382,0.246,0.835-0.012,1.226,0.17c0.202,0.012,0.406,0.023,0.609,0.035   c0.733,0.264,1.511-0.035,2.244,0.171c0.527,0.016,1.056,0.034,1.58,0.048c0.701,0.119,1.401,0.175,2.103-0.014   c0.34-0.012,0.68-0.025,1.02-0.038c0.524-0.191,1.102,0.093,1.616-0.173c0.143-0.009,0.283-0.018,0.423-0.029   c0.385-0.193,0.837,0.084,1.21-0.174c0.14-0.012,0.281-0.022,0.425-0.03c0.313-0.175,0.704,0.073,1.004-0.175l5.32-0.841   c0.389-0.189,0.84,0.074,1.222-0.172c0.137-0.012,0.272-0.024,0.411-0.034C354.738,75.529,355.264,75.769,355.739,75.556"></path>
	<path fill="#231F20" d="M322.871,119.204c-0.396-0.619-0.502-1.355-0.887-1.992c-1.188-1.974-2.951-3.41-4.592-4.939   c-4.533-4.221-9.164-8.332-13.717-12.528c-5.467-5.034-9.911-10.837-13.13-17.572c-1.527-3.208-3.348-6.259-5.716-8.947   c-0.498-0.561-0.841-0.862-1.209,0.146c-0.187,0.516-0.391,1.047-0.634,1.554c-1.855,3.885-3.654,7.801-5.56,11.662   c-1.324,2.687-2.511,5.442-3.992,8.058c-1.115,1.983-2.256,3.948-3.424,5.902c-2.554,4.281-6.148,7.745-9.063,11.736   c-1.339,1.832-2.539,3.767-2.825,6.107c-0.104,0.675-0.106,1.352,0.003,2.032c0.197,1.57,0.782,3.012,1.447,4.432   c0.157,0.345,0.315,0.251,0.542,0.18c2.772-0.866,5.178-2.292,6.99-4.612c1.78-2.281,2.969-4.882,3.964-7.572   c0.222-0.595,0.479-0.555,0.938-0.396c1.821,0.625,3.625,1.292,5.471,1.825c3.247,0.938,6.466,2.008,9.858,2.306   c0.321,0.167,0.71-0.066,1.023,0.167c0.137,0.009,0.27,0.021,0.406,0.033c0.525,0.197,1.101-0.092,1.616,0.173   c0.21,0.012,0.419,0.021,0.627,0.031c1.225,0.105,2.443,0.111,3.665,0l0.39-0.042c0.321-0.215,0.712,0.003,1.04-0.163   c0.14-0.009,0.281-0.018,0.425-0.026c0.299-0.249,0.688,0.003,1.004-0.177c0.136-0.01,0.272-0.025,0.406-0.037   c0.312-0.234,0.7,0.006,1.021-0.166c0.127-0.015,0.255-0.031,0.385-0.043c0.321-0.215,0.714,0.006,1.044-0.165   c0.119-0.015,0.237-0.033,0.354-0.047c0.338-0.189,0.729,0.003,1.07-0.153c0.205-0.012,0.411-0.026,0.614-0.037   c1.234-0.178,2.469-0.154,3.704-0.009c0.405,0.11,0.816,0.216,1.219,0.326c3.004,0.809,4.992,3.083,7.228,5.002   c1.381,1.186,2.686,2.462,4.226,3.452c0.961,0.615,1.656,0.534,2.512-0.207c0.828-0.716,1.083-1.736,1.545-2.648   C322.981,120.967,322.971,120.087,322.871,119.204 M298.631,108.833c-5.358,1.053-10.678,1.256-15.952-0.445   c-1.002-0.324-1.948-0.758-2.792-1.398c-1.653-1.265-2.193-2.928-1.601-4.929c0.474-1.602,1.264-3.056,2.098-4.484   c1.509-2.574,3.237-4.999,5.008-7.528c3.186,4.167,6.9,7.68,10.06,11.667c1.498,1.89,2.806,3.899,3.718,6.146   C299.413,108.46,299.392,108.683,298.631,108.833"></path>
	<path fill="#231F20" d="M451.6,119.406c-0.403-1.016-0.725-2.062-1.431-2.941c-2.025-2.527-4.516-4.584-6.871-6.771   c-4.416-4.098-9.065-7.943-13.274-12.267c-3.079-3.167-5.921-6.502-8.133-10.363c-1.853-3.229-3.403-6.626-5.395-9.781   c-0.953-1.517-1.963-2.983-3.237-4.254c-0.298-0.296-0.583-0.557-0.824,0.009c-1.457,3.419-3.137,6.732-4.72,10.092   c-1.152,2.44-2.252,4.909-3.445,7.326c-1.554,3.164-3.217,6.271-5.07,9.273c-1.459,2.365-3.024,4.655-4.808,6.773   c-1.69,2.015-3.484,3.949-5.012,6.097c-1.165,1.629-2.226,3.332-2.515,5.382c-0.097,0.949-0.127,1.898,0.013,2.848   c0.043,0.795,0.388,1.495,0.658,2.226c1.022,2.731,0.664,2.321,2.938,1.363c2.354-0.993,4.33-2.506,5.803-4.654   c1.469-2.136,2.54-4.458,3.491-6.854c0.09-0.222-0.075-0.804,0.629-0.557c2.104,0.746,4.23,1.449,6.369,2.094   c2.592,0.782,5.193,1.541,7.885,1.926c0.313,0.185,0.703-0.07,1.004,0.179c0.073,0.011,0.146,0.02,0.219,0.028   c0.382,0.192,0.837-0.085,1.21,0.175c0.142,0.012,0.282,0.021,0.425,0.032c0.479,0.176,1.004-0.058,1.482,0.15   c0.252,0.02,0.507,0.034,0.758,0.052c1.157,0.106,2.31,0.106,3.462,0.002c0.188-0.018,0.374-0.035,0.559-0.055   c0.339-0.188,0.734,0.008,1.074-0.154c0.13-0.013,0.258-0.028,0.387-0.04c0.322-0.215,0.713,0.006,1.042-0.163   c0.131-0.015,0.258-0.028,0.388-0.042c0.321-0.215,0.713,0.012,1.04-0.165c0.519-0.293,1.086-0.246,1.647-0.228   c0.373-0.261,0.824,0.013,1.21-0.175c0.185-0.018,0.373-0.036,0.558-0.052c1.247-0.13,2.492-0.17,3.734,0.016   c1.722,0.345,3.315,1.019,4.663,2.131c2.396,1.977,4.755,4.009,7.089,6.063c1.89,1.667,3.233,1.036,4.216-0.649   c0.373-0.641,0.51-1.368,0.796-2.04C451.706,120.762,451.728,120.086,451.6,119.406 M427.434,108.816   c-2.567,0.492-5.139,0.85-7.76,0.8c-2.83,0.041-5.601-0.296-8.29-1.218c-0.352-0.121-0.697-0.249-1.039-0.394   c-2.703-1.131-4.706-3.261-2.954-7.18c1.654-3.709,4.051-6.955,6.323-10.279c0.206-0.308,0.377-0.468,0.67-0.085   c3.57,4.621,7.987,8.526,11.287,13.372c0.877,1.288,1.617,2.657,2.196,4.107C428.047,108.38,428.146,108.679,427.434,108.816"></path>
	<path fill="#231F20" d="M554.424,146.235v-4.174h-7.202v-6.051h-4.173v20.133c0,2.421,1.943,4.397,4.399,4.397h6.976v-4.174h-6.976   c-0.129,0-0.227-0.096-0.227-0.224v-9.907H554.424z"></path>
	<path fill="#231F20" d="M525.862,156.366c-0.127,0-0.221-0.094-0.221-0.222v-9.683c0-0.128,0.094-0.226,0.221-0.226h14.306v-4.174   h-14.306c-2.42,0-4.396,1.975-4.396,4.4v9.683c0,2.421,1.976,4.396,4.396,4.396h14.369v-4.174H525.862z"></path>
	<path fill="#231F20" d="M518.647,153.403v-6.946c0-2.42-1.975-4.395-4.396-4.395h-9.97c-2.424,0-4.398,1.974-4.398,4.395v9.687   c0,2.42,1.975,4.396,4.398,4.396h14.366v-4.174h-14.366c-0.127,0-0.225-0.095-0.225-0.222v-2.74H518.647z M504.057,146.457   c0-0.127,0.098-0.22,0.225-0.22h9.97c0.127,0,0.223,0.093,0.223,0.22v2.74h-10.417V146.457z"></path>
	<path fill="#231F20" d="M492.668,142.061H478.3v18.479h4.174v-14.083c0-0.127,0.093-0.222,0.221-0.222h9.974   c0.127,0,0.223,0.095,0.223,0.222v14.083h4.174v-14.083C497.064,144.037,495.089,142.061,492.668,142.061"></path>
	<path fill="#231F20" d="M471.083,142.061h-14.369v18.479h4.176v-14.083c0-0.127,0.095-0.222,0.224-0.222h9.97   c0.128,0,0.224,0.095,0.224,0.222v14.083h4.172v-14.083C475.479,144.037,473.504,142.061,471.083,142.061"></path>
	<path fill="#231F20" d="M449.503,142.063h-9.975c-2.421,0-4.396,1.974-4.396,4.395v9.687c0,2.42,1.976,4.396,4.396,4.396h9.975   c2.419,0,4.395-1.976,4.395-4.396v-9.687C453.897,144.037,451.922,142.063,449.503,142.063 M449.723,156.144   c0,0.127-0.093,0.222-0.22,0.222h-9.975c-0.128,0-0.222-0.095-0.222-0.222v-9.687c0-0.127,0.094-0.22,0.222-0.22h9.975   c0.127,0,0.22,0.093,0.22,0.22V156.144z"></path>
	<path fill="#231F20" d="M417.946,156.366c-0.129,0-0.224-0.094-0.224-0.222v-9.683c0-0.128,0.095-0.226,0.224-0.226h14.302v-4.174   h-14.302c-2.421,0-4.399,1.975-4.399,4.4v9.683c0,2.421,1.979,4.396,4.399,4.396h14.368v-4.174H417.946z"></path>
	<polyline fill="#231F20" points="380.214,150.754 384.402,158.083 380.214,165.414 363.302,165.414 354.847,150.767    363.302,136.119 380.214,136.119 375.979,143.448 367.531,143.448 363.306,150.767 367.531,158.083 375.979,158.083    380.196,150.754  "></polyline>
	<polygon fill="#4D4D4F" points="380.196,150.755 384.425,143.448 388.65,150.776 384.403,158.083  "></polygon>
	<polygon fill="#77787B" points="375.979,158.083 371.744,150.764 380.192,136.119 397.1,136.119 405.557,150.764 397.1,165.416    380.171,165.416 384.402,158.083 392.871,158.083 397.1,150.764 392.871,143.448 384.425,143.448  "></polygon>
</g>
</svg>